<?xml version="1.0" encoding="utf-8"?>
<!-- Generator: Adobe Illustrator 23.1.0, SVG Export Plug-In . SVG Version: 6.00 Build 0)  -->
<svg version="1.1" id="Слой_1" xmlns="http://www.w3.org/2000/svg" xmlns:xlink="http://www.w3.org/1999/xlink" x="0px" y="0px"
	 viewBox="0 0 30 32" style="enable-background:new 0 0 30 32;" xml:space="preserve">
<style type="text/css">
	.st0{fill:#F277A4;}
</style>
<title>66</title>
<path class="st0" d="M14.3,1.5C10,1.9,6.5,3.7,4,6.9c-5.9,7.3-3.5,18,4.9,22.2c8.5,4.2,18.6-0.9,20.5-10.2
	c1.7-8.3-4.2-16.3-12.6-17.3C16.4,1.5,14.6,1.5,14.3,1.5z M15.9,5c4.1,0.2,8,3,9.6,7c3.3,8.4-4.2,16.9-12.9,14.8
	c-4.6-1.1-8.1-5.3-8.3-9.9c0-0.2,0-0.5,0-0.6c-0.2-2.4,1-5.4,2.8-7.5c2.1-2.4,5.6-4,8.3-3.8C15.4,5,15.7,5,15.9,5L15.9,5z"/>
</svg>
